Mulholland Drive (2001)

Director: David Lynch

Mulholland Drive is a 2001 American psychological thriller written and directed by David Lynch, starring Naomi Watts, Laura Elena Harring, and Justin Theroux. The surrealist film was highly acclaimed by many critics and earned Lynch the Prix de la mise en scène (Best Director Award) at the 2001 Cannes Film Festival as well as an Oscar nomination for Best Director. Mulholland Drive launched the careers of Watts and Harring and was the last feature film to star veteran Hollywood actress Ann Miller. The film is widely regarded as one of Lynch's finest works, alongside Eraserhead (1977) and Blue Velvet (1986), and has been chosen by many critics as representing a significant perspective of the 2000s.

Originally conceived as a television pilot, a large portion of the film was shot with Lynch's plan to keep it open-ended for a potential series. After viewing Lynch's version, however, television executives decided to reject it; Lynch then provided an ending to the project, making it a feature film. The half-pilot, half-feature result, along with Lynch's characteristic style, has left the general meaning of the movie's events open to interpretation. Lynch has declined to offer an explanation of his intentions for the narrative, leaving audiences, critics, and cast members to speculate on what transpires.

The film tells the story of an aspiring actress named Betty Elms, newly arrived in Los Angeles, California, who meets and befriends an amnesiac hiding in her aunt's apartment. The story includes several other seemingly unrelated vignettes that eventually connect in various ways, as well as some surreal scenes and images that relate to the cryptic narrative. A.O. Scott of The New York Times writes that while some might consider the plot an "offense against narrative order ... the film is an intoxicating liberation from sense, with moments of feeling all the more powerful for seeming to emerge from the murky night world of the unconscious."

Mulholland Drive was named the best film of the decade by the Los Angeles Film Critics Association, Cahiers du Cinéma, indieWIRE, Slant Magazine, Reverse Shot, The Village Voice and Time Out New York.

Media Info:
General
Complete name                    : J:\Seeding\Mulholland Drive (2001)[DVDRip][big_dad_e™]\Mulholland Drive (2001)[DVDRip][big_dad_e™].avi
Format                           : AVI
Format/Info                      : Audio Video Interleave
Format profile                   : OpenDML
File size                        : 1.50 GiB
Duration                         : 2h 27mn
Overall bit rate                 : 1 457 Kbps
Movie name                       : MULHOLLAND_DRIVE.Title1.DVDRip
Writing application              : Lavf52.78.4
Original source form/Name        : MULHOLLAND_DRIVE

Video
ID                               : 0
Format                           : MPEG-4 Visual
Format profile                   : Advanced Simple@L5
Format settings, BVOP            : 2
Format settings, QPel            : No
Format settings, GMC             : No warppoints
Format settings, Matrix          : Default (H.263)
Muxing mode                      : Packed bitstream
Codec ID                         : XVID
Codec ID/Hint                    : XviD
Duration                         : 2h 27mn
Bit rate                         : 385 Kbps
Width                            : 720 pixels
Height                           : 388 pixels
Display aspect ratio             : 1.856
Frame rate                       : 23.976 fps
Color space                      : YUV
Chroma subsampling               : 4:2:0
Bit depth                        : 8 bits
Scan type                        : Progressive
Compression mode                 : Lossy
Bits/(Pixel*Frame)               : 0.058
Stream size                      : 405 MiB (26%)
Writing library                  : XviD 
Audio
ID                               : 1
Format                           : MPEG Audio
Format version                   : Version 1
Format profile                   : Layer 3
Mode                             : Joint stereo
Mode extension                   : MS Stereo
Codec ID                         : 55
Codec ID/Hint                    : MP3
Duration                         : 2h 27mn
Bit rate mode                    : Constant
Bit rate                         : 320 Kbps
Channel(s)                       : 2 channels
Sampling rate                    : 48.0 KHz
Compression mode                 : Lossy
Stream size                      : 1.51 MiB (0%)
Alignment                        : Aligned on interleaves
Interleave, duration             : 2230 ms (53.47 video frames)
Writing library                  : LAME3.98.4

File Scan:
Malwarebytes' Anti-Malware 1.50.1.1100
www.malwarebytes.org

Database version: 6094
3/18/2011 1:40:31 AM
mbam-log-2011-03-18 (01-40-31).txt

Scan type: Quick scan
Objects scanned: 5
Time elapsed: 55 second(s)

Memory Processes Infected: 0
Memory Modules Infected: 0
Registry Keys Infected: 0
Registry Values Infected: 0
Registry Data Items Infected: 0
Folders Infected: 0
Files Infected: 0

Memory Processes Infected:
(No malicious items detected)

Memory Modules Infected:
(No malicious items detected)

Registry Keys Infected:
(No malicious items detected)

Registry Values Infected:
(No malicious items detected)

Registry Data Items Infected:
(No malicious items detected)

Folders Infected:
(No malicious items detected)

Files Infected:
(No malicious items detected)

When using TPB please read these important notes:
  
01- Anti-malware apps may warn about keygens, patches, cracks, etc., because of 
    their capabilities, (generating codes, etc.). Sometimes they're added to 
    the virus/spyware database and will be detected as malware. If you don't trust
    the keygens, patches, cracks, etc., don't use them. 
    
02- Before running .exe-files, keygens, patches, cracks, etc., always check first 
    if they can be unpacked. Often some third party added a virus to the 
    original file, repacked it and uploaded it again.

03- Letting anti-malware apps send scan results to their companies can cause
    keygens, patches, cracks, etc., to be added to their virus-database.

04- Firewalls which are set to automatically determine connections will allow 
    apps & malware!. Avoid this by manually configuring your firewall.

05- Usually (new) torrents with many downloads and seeders in a brief period is
    suspicious! Torrents with the Skull & Crossbones icon are trusted.

06- Some people use multiple accounts and post fake comments 
    and/or files trying to spread confusion. They seldom seriously
    comment or have any torrents, or a just a few to look passable.

07- Clicking on unknown links can cause malware to be installed on your machine.
  
08- In general often there are more fake and negative comments than reliable and
    positive comments.

09- In some countries uploading/downloading copyright protected material is 
    forbidden, but showing some appreciation to reliable up-loaders is not.

10- Posting fake and negative comments or fake/infected uploads on TPB can result
    in getting banned from TPB!

Requests?  Find me on SuprBay. http://forum.suprbay.org
 

For reporting bad or suspicious torrents:  
http://forum.suprbay.org/forumdisplay.php?fid=29

For more of my torrents: 
https://thepiratebay.org/user/big_dad_e/  (Secured)

All torrents scanned with:
Norton Anti-virus
Malwarebytes' Anti-malware
 
http://www.pirate-party.us/

ALWAYS SEED & THANKS SEEDERS!
